<svg xmlns="http://www.w3.org/2000/svg" viewBox="0 18.149999618530273 321.1000061035156 69.75" data-asc="1.303"><g fill="#000000"><g fill="#000000" transform="translate(0, 0)"><path d="M46.30 54.00Q46.95 54.00 47.33 54.60Q47.70 55.20 47.70 56.25Q47.70 58.20 46.75 59.35Q44.35 62.25 41.90 63.82Q39.45 65.40 36.10 65.40Q32.85 65.40 30.58 63.65Q28.30 61.90 26.25 57.65Q24.60 54.25 23.65 52.62Q22.70 51.00 21.78 50.30Q20.85 49.60 19.50 49.45Q19.30 50.50 18.35 56.05Q17.95 58.55 17.85 59.10Q17.35 62.15 15.85 63.77Q14.35 65.40 11.30 65.40Q7.95 65.40 5.38 63.42Q2.80 61.45 1.40 57.92Q0 54.40 0 49.90Q0 41.50 2.93 35.40Q5.85 29.30 11.13 26.07Q16.40 22.85 23.30 22.85Q28.10 22.85 31.35 24.30Q34.60 25.75 36.18 28.30Q37.75 30.85 37.75 34.05Q37.75 36.85 36.43 39.52Q35.10 42.20 32.45 44.25Q29.80 46.30 26 47.30Q28.40 47.95 29.70 49.40Q31 50.85 32.30 53.65Q33.70 56.65 35.08 58.05Q36.45 59.45 38.25 59.45Q39.85 59.45 41.30 58.37Q42.75 57.30 44.95 54.70Q45.55 54.00 46.30 54.00M12.60 49.40Q10.90 49.40 10.28 48.60Q9.65 47.80 9.65 46.80Q9.65 45.60 10.43 44.90Q11.20 44.20 12.20 44.20L13.45 44.20Q14.25 39.30 14.95 35.75Q15.60 32.50 19.15 32.50Q22 32.50 22 35.05Q22 35.60 21.95 35.90L20.45 44.20Q23.15 44.05 25.38 42.90Q27.60 41.75 28.93 39.70Q30.25 37.65 30.25 35.05Q30.25 31.90 28.10 30.10Q25.95 28.30 21.80 28.30Q16.90 28.30 13.23 30.72Q9.55 33.15 7.50 37.92Q5.45 42.70 5.45 49.55Q5.45 52.75 6.10 55.05Q6.75 57.35 7.70 58.50Q8.65 59.65 9.50 59.65Q10.15 59.65 10.58 59.00Q11 58.35 11.25 56.90L12.60 49.40ZM49.80 65.40Q46.70 65.40 44.85 63.15Q43 60.90 43 57.25Q43 53.25 44.85 49.67Q46.70 46.10 49.77 43.92Q52.85 41.75 56.30 41.75Q57.40 41.75 57.78 42.17Q58.15 42.60 58.40 43.70Q59.45 43.50 60.60 43.50Q63.05 43.50 63.05 45.25Q63.05 46.30 62.30 50.25Q61.15 56.00 61.15 58.25Q61.15 59.00 61.53 59.45Q61.90 59.90 62.50 59.90Q63.45 59.90 64.80 58.67Q66.15 57.45 68.45 54.70Q69.05 54.00 69.80 54.00Q70.45 54.00 70.83 54.60Q71.20 55.20 71.20 56.25Q71.20 58.25 70.25 59.35Q68.20 61.90 65.90 63.65Q63.60 65.40 61.45 65.40Q59.80 65.40 58.42 64.27Q57.05 63.15 56.35 61.20Q53.75 65.40 49.80 65.40M51.60 60.35Q52.70 60.35 53.70 59.05Q54.70 57.75 55.15 55.60L57 46.40Q54.90 46.45 53.13 47.97Q51.35 49.50 50.30 52.00Q49.25 54.50 49.25 57.30Q49.25 58.85 49.88 59.60Q50.50 60.35 51.60 60.35ZM94.90 54.00Q95.55 54.00 95.92 54.60Q96.30 55.20 96.30 56.25Q96.30 58.25 95.35 59.35Q93.05 62.00 90.63 63.70Q88.20 65.40 85.10 65.40Q82.55 65.40 81.25 63.92Q79.95 62.45 79.95 59.65Q79.95 58.25 80.65 54.65Q81.30 51.50 81.30 50.30Q81.30 49.50 80.75 49.50Q80.10 49.50 78.90 51.17Q77.70 52.85 76.50 55.60Q75.30 58.35 74.55 61.40Q73.60 65.40 69.85 65.40Q68.35 65.40 67.88 64.32Q67.40 63.25 67.40 60.45Q67.40 58.85 67.45 57.90L67.50 53.90Q67.50 46.20 69.08 37.85Q70.65 29.50 73.72 23.82Q76.80 18.15 81.10 18.15Q83.40 18.15 84.83 20.12Q86.25 22.10 86.25 25.25Q86.25 30.30 83.30 35.72Q80.35 41.15 73.70 48.40Q73.55 51.00 73.55 53.75Q75.20 49.50 77.22 46.82Q79.25 44.15 81.22 43.00Q83.20 41.85 84.85 41.85Q88.10 41.85 88.10 45.10Q88.10 47.05 87 52.15Q86.05 56.50 86.05 57.90Q86.05 59.90 87.50 59.90Q88.50 59.90 89.88 58.67Q91.25 57.45 93.55 54.70Q94.15 54.00 94.90 54.00M80.05 23.10Q79.15 23.10 78.05 25.67Q76.95 28.25 75.92 32.62Q74.90 37.00 74.25 42.15Q77.35 38.50 79.38 34.20Q81.40 29.90 81.40 26.40Q81.40 24.80 81.05 23.95Q80.70 23.10 80.05 23.10ZM97.35 65.40Q95.10 65.40 93.67 63.32Q92.25 61.25 92.25 58.15Q92.25 54.40 92.75 51.27Q93.25 48.15 94.40 44.65Q94.90 43.15 95.80 42.50Q96.70 41.85 98.65 41.85Q99.75 41.85 100.17 42.20Q100.60 42.55 100.60 43.25Q100.60 43.65 100.05 45.95Q99.55 47.80 99.25 49.30Q98.25 54.55 98.25 56.30Q98.25 57.35 98.50 57.77Q98.75 58.20 99.30 58.20Q100.05 58.20 101.17 56.70Q102.30 55.20 103.57 52.15Q104.85 49.10 106.05 44.65Q106.45 43.15 107.27 42.50Q108.10 41.85 109.75 41.85Q110.90 41.85 111.35 42.12Q111.80 42.40 111.80 43.15Q111.80 44.40 110.55 50.00Q109.15 56.40 109.15 57.90Q109.15 58.85 109.55 59.37Q109.95 59.90 110.60 59.90Q111.60 59.90 112.97 58.67Q114.35 57.45 116.65 54.70Q117.25 54.00 118 54.00Q118.65 54.00 119.02 54.60Q119.40 55.20 119.40 56.25Q119.40 58.25 118.45 59.35Q116.30 62.00 113.82 63.70Q111.35 65.40 108.20 65.40Q105.80 65.40 104.67 63.55Q103.55 61.70 103.55 58.35Q102.70 61.75 101 63.57Q99.30 65.40 97.35 65.40ZM134.30 54.00Q134.95 54.00 135.32 54.60Q135.70 55.20 135.70 56.25Q135.70 58.25 134.75 59.35Q132.60 62.00 130.07 63.70Q127.55 65.40 124.35 65.40Q119.95 65.40 117.82 61.40Q115.70 57.40 115.70 51.05Q115.70 44.95 117.27 37.15Q118.85 29.35 121.92 23.75Q125.00 18.15 129.25 18.15Q131.65 18.15 133.02 20.37Q134.40 22.60 134.40 26.75Q134.40 32.70 131.10 40.55Q127.80 48.40 122.15 56.10Q122.50 58.15 123.30 59.02Q124.10 59.90 125.40 59.90Q127.45 59.90 129 58.72Q130.55 57.55 132.95 54.70Q133.55 54.00 134.30 54.00M128.15 23.10Q127.00 23.10 125.55 27.25Q124.10 31.40 123.00 37.55Q121.90 43.70 121.80 49.35Q125.35 43.50 127.45 37.62Q129.55 31.75 129.55 26.90Q129.55 23.10 128.15 23.10ZM157.50 65.40Q154.05 65.40 151.28 63.70Q148.50 62.00 146.90 58.77Q145.30 55.55 145.30 51.15Q145.30 43.55 148.55 37.07Q151.80 30.60 158.15 26.67Q164.50 22.75 173.40 22.75Q175.70 22.75 178.32 23.10Q180.95 23.45 183.10 24.15Q184.50 24.55 184.50 26.15Q184.50 27.45 183.53 28.60Q182.55 29.75 181.25 29.75Q180.85 29.75 180.65 29.70Q178.05 29.10 176.20 28.82Q174.35 28.55 172.30 28.55Q165.95 28.55 161.50 31.62Q157.05 34.70 154.85 39.75Q152.65 44.80 152.65 50.65Q152.65 54.90 154.32 57.22Q156 59.55 158.70 59.55Q161.75 59.55 164.05 57.05Q166.35 54.55 168.25 48.95Q170.15 43.35 172 33.75Q172.30 32.35 173.20 31.85Q174.10 31.35 175.60 31.35Q179.15 31.35 179.15 33.65Q179.15 34.05 179 34.65Q177.70 39.50 176.63 45.37Q175.55 51.25 175.55 54.30Q175.55 57.00 176.35 58.22Q177.15 59.45 178.80 59.45Q180.40 59.45 181.85 58.37Q183.30 57.30 185.50 54.70Q186.10 54.00 186.85 54.00Q187.50 54.00 187.88 54.60Q188.25 55.20 188.25 56.25Q188.25 58.20 187.30 59.35Q184.85 62.30 182.50 63.85Q180.15 65.40 176.75 65.40Q173.25 65.40 171.10 63.37Q168.95 61.35 168.40 57.65Q164.70 65.40 157.50 65.40ZM187.75 65.40Q185.85 65.40 185.08 63.40Q184.30 61.40 184.30 57.00Q184.30 50.50 186.15 44.65Q186.60 43.20 187.63 42.52Q188.65 41.85 190.50 41.85Q191.50 41.85 191.90 42.10Q192.30 42.35 192.30 43.05Q192.30 43.85 191.55 46.65Q191.05 48.65 190.75 50.15Q190.45 51.65 190.25 53.85Q191.90 49.55 193.95 46.85Q196 44.15 197.98 43.00Q199.95 41.85 201.60 41.85Q204.85 41.85 204.85 45.10Q204.85 47.05 203.75 52.15Q202.80 56.50 202.80 57.90Q202.80 59.90 204.25 59.90Q205.25 59.90 206.63 58.67Q208 57.45 210.30 54.70Q210.90 54.00 211.65 54.00Q212.30 54.00 212.68 54.60Q213.05 55.20 213.05 56.25Q213.05 58.25 212.10 59.35Q209.95 62.00 207.48 63.70Q205 65.40 201.85 65.40Q199.30 65.40 198 63.92Q196.70 62.45 196.70 59.65Q196.70 58.25 197.40 54.65Q198.05 51.50 198.05 50.30Q198.05 49.50 197.50 49.50Q196.85 49.50 195.68 51.17Q194.50 52.85 193.28 55.60Q192.05 58.35 191.30 61.40Q190.75 63.75 190.03 64.57Q189.30 65.40 187.75 65.40ZM215.15 65.40Q212.05 65.40 210.20 63.15Q208.35 60.90 208.35 57.25Q208.35 53.25 210.20 49.67Q212.05 46.10 215.13 43.92Q218.20 41.75 221.65 41.75Q222.75 41.75 223.13 42.17Q223.50 42.60 223.75 43.70Q224.80 43.50 225.95 43.50Q228.40 43.50 228.40 45.25Q228.40 46.30 227.65 50.25Q226.50 56.00 226.50 58.25Q226.50 59.00 226.88 59.45Q227.25 59.90 227.85 59.90Q228.80 59.90 230.15 58.67Q231.50 57.45 233.80 54.70Q234.40 54.00 235.15 54.00Q235.80 54.00 236.18 54.60Q236.55 55.20 236.55 56.25Q236.55 58.25 235.60 59.35Q233.55 61.90 231.25 63.65Q228.95 65.40 226.80 65.40Q225.15 65.40 223.78 64.27Q222.40 63.15 221.70 61.20Q219.10 65.40 215.15 65.40M216.95 60.35Q218.05 60.35 219.05 59.05Q220.05 57.75 220.50 55.60L222.35 46.40Q220.25 46.45 218.48 47.97Q216.70 49.50 215.65 52.00Q214.60 54.50 214.60 57.30Q214.60 58.85 215.23 59.60Q215.85 60.35 216.95 60.35ZM258.10 54.10Q258.75 54.10 259.13 54.72Q259.50 55.35 259.50 56.30Q259.50 57.45 259.15 58.10Q258.80 58.75 258.05 59.25Q253.75 62.15 251.75 63.55L248.55 65.70Q246.65 76.05 243.58 81.97Q240.50 87.90 235.75 87.90Q233.20 87.90 231.60 86.32Q230.00 84.75 230.00 82.20Q230.00 78.65 232.80 74.57Q235.60 70.50 243.30 64.55L243.60 62.60Q242.75 63.95 241.38 64.67Q240.00 65.40 238.65 65.40Q235.55 65.40 233.70 63.15Q231.85 60.90 231.85 57.25Q231.85 53.25 233.70 49.67Q235.55 46.10 238.63 43.92Q241.70 41.75 245.15 41.75Q246.25 41.75 246.63 42.17Q247.00 42.60 247.25 43.70Q248.20 43.50 249.45 43.50Q250.70 43.50 251.23 43.87Q251.75 44.25 251.75 45.35Q251.75 45.95 251.70 46.30Q251.50 47.85 250.45 54.15Q250.25 55.35 250.03 56.77Q249.80 58.20 249.55 59.80Q253.40 56.80 256.95 54.50Q257.60 54.10 258.10 54.10M240.45 60.35Q241.60 60.35 242.65 58.95Q243.70 57.55 244.15 54.95L245.75 46.40Q243.70 46.45 241.95 47.97Q240.20 49.50 239.15 52.00Q238.10 54.50 238.10 57.30Q238.10 58.85 238.73 59.60Q239.35 60.35 240.45 60.35M236.30 83.05Q237.55 83.05 239.13 80.05Q240.70 77.05 242.15 70.50Q238.30 73.80 236.60 76.45Q234.90 79.10 234.90 81.10Q234.90 81.95 235.23 82.50Q235.55 83.05 236.30 83.05ZM262.60 65.40Q259.50 65.40 257.65 63.15Q255.80 60.90 255.80 57.25Q255.80 53.25 257.65 49.67Q259.50 46.10 262.57 43.92Q265.65 41.75 269.10 41.75Q270.20 41.75 270.57 42.17Q270.95 42.60 271.20 43.70Q272.25 43.50 273.40 43.50Q275.85 43.50 275.85 45.25Q275.85 46.30 275.10 50.25Q273.95 56.00 273.95 58.25Q273.95 59.00 274.32 59.45Q274.70 59.90 275.30 59.90Q276.25 59.90 277.60 58.67Q278.95 57.45 281.25 54.70Q281.85 54.00 282.60 54.00Q283.25 54.00 283.63 54.60Q284 55.20 284 56.25Q284 58.25 283.05 59.35Q281 61.90 278.70 63.65Q276.40 65.40 274.25 65.40Q272.60 65.40 271.23 64.27Q269.85 63.15 269.15 61.20Q266.55 65.40 262.60 65.40M264.40 60.35Q265.50 60.35 266.50 59.05Q267.50 57.75 267.95 55.60L269.80 46.40Q267.70 46.45 265.93 47.97Q264.15 49.50 263.10 52.00Q262.05 54.50 262.05 57.30Q262.05 58.85 262.68 59.60Q263.30 60.35 264.40 60.35ZM283.50 65.40Q281.60 65.40 280.82 63.40Q280.05 61.40 280.05 57.00Q280.05 50.50 281.90 44.65Q282.35 43.20 283.38 42.52Q284.40 41.85 286.25 41.85Q287.25 41.85 287.65 42.10Q288.05 42.35 288.05 43.05Q288.05 43.85 287.30 46.65Q286.80 48.65 286.50 50.15Q286.20 51.65 286 53.85Q287.65 49.55 289.70 46.85Q291.75 44.15 293.73 43.00Q295.70 41.85 297.35 41.85Q300.60 41.85 300.60 45.10Q300.60 47.05 299.50 52.15Q298.55 56.50 298.55 57.90Q298.55 59.90 300 59.90Q301 59.90 302.38 58.67Q303.75 57.45 306.05 54.70Q306.65 54.00 307.40 54.00Q308.05 54.00 308.43 54.60Q308.80 55.20 308.80 56.25Q308.80 58.25 307.85 59.35Q305.70 62.00 303.23 63.70Q300.75 65.40 297.60 65.40Q295.05 65.40 293.75 63.92Q292.45 62.45 292.45 59.65Q292.45 58.25 293.15 54.65Q293.80 51.50 293.80 50.30Q293.80 49.50 293.25 49.50Q292.60 49.50 291.43 51.17Q290.25 52.85 289.03 55.60Q287.80 58.35 287.05 61.40Q286.50 63.75 285.78 64.57Q285.05 65.40 283.50 65.40ZM311.30 38.55Q309.20 38.55 308.15 37.57Q307.10 36.60 307.10 34.85Q307.10 33.10 308.48 31.92Q309.85 30.75 311.90 30.75Q313.75 30.75 314.90 31.65Q316.05 32.55 316.05 34.20Q316.05 36.20 314.75 37.37Q313.45 38.55 311.30 38.55M310.90 65.40Q307.65 65.40 306.18 63.10Q304.70 60.80 304.70 57.00Q304.70 54.75 305.28 51.22Q305.85 47.70 306.75 44.65Q307.20 43.05 307.95 42.45Q308.70 41.85 310.35 41.85Q312.90 41.85 312.90 43.55Q312.90 44.80 311.95 49.35Q310.75 54.85 310.75 56.80Q310.75 58.30 311.15 59.10Q311.55 59.90 312.50 59.90Q313.40 59.90 314.75 58.65Q316.10 57.40 318.35 54.70Q318.95 54.00 319.70 54.00Q320.35 54.00 320.73 54.60Q321.10 55.20 321.10 56.25Q321.10 58.25 320.15 59.35Q315.20 65.40 310.90 65.40Z"/></g></g></svg>